PathFileType	4	(X/Y/Z)	s07c0401.trc
DataRate	CameraRate	NumFrames	NumMarkers	Units	OrigDataRate	OrigDataStartFrame	OrigNumFrames
200	200	4	48	mm	200	500	2000
Frame#	Time	racr			lacr			c7			jug			rlel			rdr			llel			ldr			s2			lic			ric			lasi			rasi			rpsi			lpsi			rgt			lgt			rth1			rth2			rth3			rth4			rlfc			rmfc			rsh1			rsh2			rsh3			rsh4			rlmal			rcal			rtoe			rmt5			lth1			lth2			lth4			lth3			llfc			lmfc			lsh1			lsh2			lsh3			lsh4			llmal			lcal			ltoe			lmt5			SBIKE			LBIKE			RBIKE			
		X1	Y1	Z1	X2	Y2	Z2	X3	Y3	Z3	X4	Y4	Z4	X5	Y5	Z5	X6	Y6	Z6	X7	Y7	Z7	X8	Y8	Z8	X9	Y9	Z9	X10	Y10	Z10	X11	Y11	Z11	X12	Y12	Z12	X13	Y13	Z13	X14	Y14	Z14	X15	Y15	Z15	X16	Y16	Z16	X17	Y17	Z17	X18	Y18	Z18	X19	Y19	Z19	X20	Y20	Z20	X21	Y21	Z21	X22	Y22	Z22	X23	Y23	Z23	X24	Y24	Z24	X25	Y25	Z25	X26	Y26	Z26	X27	Y27	Z27	X28	Y28	Z28	X29	Y29	Z29	X30	Y30	Z30	X31	Y31	Z31	X32	Y32	Z32	X33	Y33	Z33	X34	Y34	Z34	X35	Y35	Z35	X36	Y36	Z36	X37	Y37	Z37	X38	Y38	Z38	X39	Y39	Z39	X40	Y40	Z40	X41	Y41	Z41	X42	Y42	Z42	X43	Y43	Z43	X44	Y44	Z44	X45	Y45	Z45	X46	Y46	Z46	X47	Y47	Z47	X48	Y48	Z48	
500	2.5000	627.522166	1479.256251	-149.845292	562.687683	1464.080401	-469.095375	565.608002	1544.801755	-305.335130	548.876357	1391.030538	-299.069815	522.382934	1169.036903	17.679683	698.731404	949.883720	-63.334462	461.996716	1127.677885	-531.791803	686.677557	943.694744	-442.267110	23.268927	1266.575176	-216.810341	161.655047	1328.746749	-371.251204	221.011711	1282.433185	-87.417581	197.094078	1249.597938	-355.153925	226.153816	1222.181918	-106.309167	63.719227	1297.606429	-165.421403	54.953528	1318.637686	-270.008396	140.589331	1144.135395	-50.762826	113.351551	1184.343071	-411.617453	200.425563	1000.865702	-47.647527	247.443644	927.008863	-58.396597	254.489423	841.470159	-57.015065	276.062545	937.887095	-78.268460	277.769979	701.614126	-85.120708	258.220385	689.825039	-186.719936	188.671969	589.822677	-55.824485	157.934777	508.312306	-72.191038	90.722683	451.595807	-68.522033	170.565738	502.169772	-110.722002	5.606972	340.030637	-70.156584	-69.696798	338.967383	-96.975417	166.602417	172.180114	-128.401298	86.627163	181.405131	-53.343270	204.247898	1102.393243	-421.525678	288.570247	1077.198394	-427.069437	308.310534	1107.165548	-419.033689	349.893996	1012.264235	-427.719442	485.557044	893.950171	-402.218491	480.611781	877.971485	-302.534729	398.882871	770.848849	-415.350410	363.493824	695.179049	-393.136231	291.998400	640.570461	-398.898365	366.972729	698.103133	-351.618104	199.289812	541.028111	-394.830318	123.260144	508.716954	-358.518165	407.133188	457.659927	-365.725108	322.578421	443.004020	-428.366921	-263.361022	976.226302	-236.296419	-82.683176	79.094688	-435.153604	-82.648670	79.164779	-37.575214	
501	2.5050	628.194805	1479.044591	-149.147061	564.940035	1464.021305	-468.326091	567.392603	1544.402199	-304.762229	549.959400	1390.673048	-298.599571	522.192499	1168.894254	17.635899	698.663577	949.801817	-62.924024	462.767531	1128.178511	-531.594491	686.820365	943.657622	-441.907518	23.813612	1268.154313	-217.259389	162.191873	1329.967428	-372.158759	221.699630	1283.957598	-88.347317	197.393881	1250.785552	-356.439130	226.969801	1223.788205	-107.487074	64.487747	1299.169421	-166.240662	55.376080	1320.151435	-270.746864	141.941665	1145.936311	-51.605607	112.454218	1185.335199	-412.051591	204.375519	1003.936987	-48.198464	252.280502	930.595084	-58.784092	261.256631	845.573194	-56.983706	281.205134	942.088891	-78.707476	284.770574	704.898925	-84.850638	266.801848	692.254039	-186.360732	193.451051	594.988127	-55.605904	160.922392	514.243630	-71.819069	92.234746	459.122917	-68.175457	173.271010	507.632500	-110.337712	4.536662	349.740909	-69.700306	-70.745892	351.306699	-96.985433	159.646840	176.593507	-128.364453	79.991062	188.525880	-53.180619	202.756461	1102.320313	-422.619808	286.742652	1076.131911	-428.508408	306.791994	1105.822772	-420.367197	347.301473	1010.524875	-429.130303	482.223128	891.078191	-403.928076	477.718558	874.886133	-303.332421	397.435245	766.386524	-416.890041	364.440067	690.001263	-394.743919	293.969449	633.107061	-399.328650	368.271646	692.407501	-353.148594	204.036507	531.209069	-394.996510	128.384310	498.102707	-359.177631	413.481437	450.702015	-365.727761	329.227903	434.796739	-428.456130	-263.352173	976.236046	-236.292465	-82.674224	79.109732	-435.159838	-82.662170	79.192267	-37.576766	
502	2.5100	628.624719	1478.966749	-148.299062	567.252469	1464.046251	-467.489946	569.085378	1544.099837	-304.125520	551.030449	1390.358671	-298.090361	522.075192	1168.773907	17.612853	698.616503	949.659442	-62.475577	463.620766	1128.691085	-531.435443	686.933452	943.596967	-441.422935	24.468220	1269.326886	-217.813345	162.649421	1330.936035	-373.066081	222.487789	1285.629843	-88.909599	196.233752	1251.677368	-356.662372	227.817175	1225.471873	-108.751846	65.120045	1300.521719	-166.998691	55.776255	1321.369938	-271.456615	143.584353	1147.556897	-52.414973	111.680794	1185.946033	-412.541466	208.675509	1006.842727	-48.855064	257.197348	934.164627	-59.136340	267.870371	849.613983	-56.743410	286.305688	946.393938	-79.044516	291.866950	708.363262	-84.442665	274.620622	695.543343	-186.220264	198.384171	600.180148	-55.519843	162.752748	520.196536	-72.091850	93.569087	466.388965	-68.313516	176.213714	513.175447	-110.125759	3.814336	359.516945	-69.308457	-71.626544	364.366885	-97.180621	152.959112	181.552177	-128.262908	73.815703	196.146441	-53.140715	201.180441	1101.739843	-423.662118	284.781346	1074.452642	-429.873184	305.242540	1103.947275	-422.068466	344.509203	1008.077923	-430.542241	478.622396	887.545720	-405.652933	474.804826	871.079215	-305.078815	395.741667	761.379496	-418.554639	370.877753	685.455404	-391.290424	295.769592	625.626499	-400.579650	369.351467	686.283357	-354.964963	208.953548	520.980388	-395.367850	133.612280	486.935766	-359.398806	419.334458	443.200463	-365.782376	335.429334	426.102866	-428.538159	-263.332143	976.241267	-236.246311	-82.672192	79.136659	-435.149576	-82.644222	79.177978	-37.578998	
503	2.5150	628.976623	1479.041100	-147.282805	569.607092	1464.029113	-466.295975	570.679543	1543.845518	-303.396211	552.173555	1390.181451	-297.439392	521.994644	1168.674691	17.627814	698.561779	949.573788	-62.153542	464.598296	1129.228436	-531.240015	687.064900	943.521810	-440.880913	25.084262	1270.330840	-218.297809	163.058545	1331.721878	-374.024798	223.172151	1286.748530	-89.309783	196.352372	1252.346312	-358.008042	228.780181	1227.078367	-110.068012	65.798225	1301.690295	-167.745230	56.220060	1322.304654	-272.212615	145.337454	1148.988720	-53.130591	110.945536	1186.066111	-413.010278	212.664787	1009.936358	-49.827244	262.149641	937.683948	-59.457152	274.328398	853.616039	-56.372287	291.369681	950.385071	-79.266386	299.025900	711.804666	-84.234971	282.365662	698.866539	-186.090418	203.541314	605.284327	-55.428977	167.361525	526.088740	-71.554393	95.593472	473.975899	-68.299272	179.157882	519.088537	-110.333367	3.671596	369.543522	-68.954088	-71.334997	376.422287	-97.359833	146.887897	187.068429	-128.224497	68.064570	204.194498	-53.087976	199.510685	1100.566871	-424.665056	282.698483	1072.090513	-431.274558	303.628340	1101.369865	-423.807225	341.694004	1004.645906	-431.882690	474.743640	883.254227	-407.297079	471.363350	866.901922	-306.514776	393.946190	755.641238	-420.350445	365.858795	677.148903	-397.814621	297.292320	617.455091	-401.701031	370.055116	679.544896	-356.921757	213.415482	510.417181	-395.879077	138.353268	475.638725	-359.779325	424.727693	434.879588	-366.009970	340.937131	415.612401	-427.295271	-263.327683	976.270038	-236.231753	-82.668858	79.139873	-435.151702	-82.639583	79.182922	-37.572805	
